<mxfile host="app.diagrams.net" agent="Mozilla/5.0 (X11; Ubuntu; Linux x86_64; rv:132.0) Gecko/20100101 Firefox/132.0" version="24.8.3">
  <diagram name="Page-1" id="Ut7eSUsVspF0dJxSPlib">
    <mxGraphModel dx="2012" dy="747" grid="1" gridSize="10" guides="1" tooltips="1" connect="1" arrows="1" fold="1" page="1" pageScale="1" pageWidth="850" pageHeight="1100" math="1" shadow="0">
      <root>
        <mxCell id="0" />
        <mxCell id="1" parent="0" />
        <mxCell id="Sz2u9h4e2YJX5451O0U0-2" value="" style="verticalLabelPosition=bottom;verticalAlign=top;html=1;shape=mxgraph.basic.acute_triangle;dx=0.5;strokeColor=#FFFFFF;fontColor=#FFFFFF;fillColor=#000000;rotation=-45;fillStyle=solid;" vertex="1" parent="1">
          <mxGeometry x="80" y="110" width="100" height="70" as="geometry" />
        </mxCell>
        <mxCell id="Sz2u9h4e2YJX5451O0U0-3" value="" style="verticalLabelPosition=bottom;verticalAlign=top;html=1;shape=mxgraph.basic.acute_triangle;dx=0.5;strokeColor=#FFFFFF;fontColor=#FFFFFF;fillColor=#000000;rotation=45;" vertex="1" parent="1">
          <mxGeometry x="700" y="110" width="100" height="70" as="geometry" />
        </mxCell>
        <mxCell id="Sz2u9h4e2YJX5451O0U0-4" value="" style="verticalLabelPosition=bottom;verticalAlign=top;html=1;shape=mxgraph.basic.acute_triangle;dx=0.5;strokeColor=#FFFFFF;fontColor=#FFFFFF;fillColor=#000000;rotation=-180;" vertex="1" parent="1">
          <mxGeometry x="395" y="490" width="100" height="70" as="geometry" />
        </mxCell>
        <mxCell id="Sz2u9h4e2YJX5451O0U0-5" value="" style="whiteSpace=wrap;html=1;aspect=fixed;strokeColor=#FFFFFF;fontColor=#FFFFFF;fillColor=#000000;" vertex="1" parent="1">
          <mxGeometry x="425" y="260" width="40" height="40" as="geometry" />
        </mxCell>
        <mxCell id="Sz2u9h4e2YJX5451O0U0-7" value="" style="endArrow=classic;html=1;rounded=0;strokeColor=#23445D;exitX=0.5;exitY=1;exitDx=0;exitDy=0;exitPerimeter=0;entryX=0;entryY=0.5;entryDx=0;entryDy=0;" edge="1" parent="1" source="Sz2u9h4e2YJX5451O0U0-2" target="Sz2u9h4e2YJX5451O0U0-5">
          <mxGeometry width="50" height="50" relative="1" as="geometry">
            <mxPoint x="400" y="420" as="sourcePoint" />
            <mxPoint x="450" y="370" as="targetPoint" />
          </mxGeometry>
        </mxCell>
        <mxCell id="Sz2u9h4e2YJX5451O0U0-8" value="" style="endArrow=classic;html=1;rounded=0;strokeColor=#23445D;exitX=0.5;exitY=1;exitDx=0;exitDy=0;exitPerimeter=0;entryX=0.5;entryY=1;entryDx=0;entryDy=0;" edge="1" parent="1" source="Sz2u9h4e2YJX5451O0U0-4" target="Sz2u9h4e2YJX5451O0U0-5">
          <mxGeometry width="50" height="50" relative="1" as="geometry">
            <mxPoint x="400" y="420" as="sourcePoint" />
            <mxPoint x="450" y="370" as="targetPoint" />
          </mxGeometry>
        </mxCell>
        <mxCell id="Sz2u9h4e2YJX5451O0U0-9" value="" style="endArrow=classic;html=1;rounded=0;strokeColor=#23445D;exitX=0.5;exitY=1;exitDx=0;exitDy=0;exitPerimeter=0;entryX=1;entryY=0.5;entryDx=0;entryDy=0;" edge="1" parent="1" source="Sz2u9h4e2YJX5451O0U0-3" target="Sz2u9h4e2YJX5451O0U0-5">
          <mxGeometry width="50" height="50" relative="1" as="geometry">
            <mxPoint x="400" y="420" as="sourcePoint" />
            <mxPoint x="450" y="370" as="targetPoint" />
          </mxGeometry>
        </mxCell>
        <mxCell id="Sz2u9h4e2YJX5451O0U0-10" value="" style="endArrow=classic;html=1;rounded=0;strokeColor=#23445D;exitX=0;exitY=1;exitDx=0;exitDy=0;exitPerimeter=0;entryX=1;entryY=1;entryDx=0;entryDy=0;entryPerimeter=0;" edge="1" parent="1" source="Sz2u9h4e2YJX5451O0U0-3" target="Sz2u9h4e2YJX5451O0U0-2">
          <mxGeometry width="50" height="50" relative="1" as="geometry">
            <mxPoint x="400" y="420" as="sourcePoint" />
            <mxPoint x="450" y="370" as="targetPoint" />
          </mxGeometry>
        </mxCell>
        <mxCell id="Sz2u9h4e2YJX5451O0U0-11" value="" style="endArrow=classic;html=1;rounded=0;strokeColor=#23445D;exitX=0;exitY=1;exitDx=0;exitDy=0;exitPerimeter=0;entryX=1;entryY=1;entryDx=0;entryDy=0;entryPerimeter=0;" edge="1" parent="1" source="Sz2u9h4e2YJX5451O0U0-4" target="Sz2u9h4e2YJX5451O0U0-3">
          <mxGeometry width="50" height="50" relative="1" as="geometry">
            <mxPoint x="400" y="420" as="sourcePoint" />
            <mxPoint x="450" y="370" as="targetPoint" />
          </mxGeometry>
        </mxCell>
        <mxCell id="Sz2u9h4e2YJX5451O0U0-12" value="" style="endArrow=classic;html=1;rounded=0;strokeColor=#23445D;exitX=1;exitY=1;exitDx=0;exitDy=0;exitPerimeter=0;entryX=0;entryY=1;entryDx=0;entryDy=0;entryPerimeter=0;" edge="1" parent="1" source="Sz2u9h4e2YJX5451O0U0-4" target="Sz2u9h4e2YJX5451O0U0-2">
          <mxGeometry width="50" height="50" relative="1" as="geometry">
            <mxPoint x="400" y="420" as="sourcePoint" />
            <mxPoint x="450" y="370" as="targetPoint" />
          </mxGeometry>
        </mxCell>
        <mxCell id="Sz2u9h4e2YJX5451O0U0-13" value="" style="whiteSpace=wrap;html=1;aspect=fixed;strokeColor=#FFFFFF;fontColor=#FFFFFF;fillColor=#000000;" vertex="1" parent="1">
          <mxGeometry x="180" y="40" width="40" height="40" as="geometry" />
        </mxCell>
        <mxCell id="Sz2u9h4e2YJX5451O0U0-14" value="" style="endArrow=classic;html=1;rounded=0;strokeColor=#23445D;exitX=1;exitY=1;exitDx=0;exitDy=0;exitPerimeter=0;entryX=0.5;entryY=1;entryDx=0;entryDy=0;" edge="1" parent="1" source="Sz2u9h4e2YJX5451O0U0-2" target="Sz2u9h4e2YJX5451O0U0-13">
          <mxGeometry width="50" height="50" relative="1" as="geometry">
            <mxPoint x="400" y="420" as="sourcePoint" />
            <mxPoint x="450" y="370" as="targetPoint" />
          </mxGeometry>
        </mxCell>
        <mxCell id="Sz2u9h4e2YJX5451O0U0-16" value="&lt;sub&gt;\(\alpha \vec{a}\)&lt;/sub&gt;" style="text;html=1;fontSize=24;fontStyle=1;verticalAlign=middle;align=center;rotation=0;" vertex="1" parent="1">
          <mxGeometry x="260" y="180" width="100" height="40" as="geometry" />
        </mxCell>
        <mxCell id="Sz2u9h4e2YJX5451O0U0-19" value="&lt;sub&gt;\(\alpha \vec{f}\)&lt;/sub&gt;" style="text;html=1;fontSize=24;fontStyle=1;verticalAlign=middle;align=center;rotation=0;" vertex="1" parent="1">
          <mxGeometry x="395" y="80" width="100" height="40" as="geometry" />
        </mxCell>
        <mxCell id="Sz2u9h4e2YJX5451O0U0-20" value="&lt;sub&gt;\(\alpha \vec{c}\)&lt;/sub&gt;" style="text;html=1;fontSize=24;fontStyle=1;verticalAlign=middle;align=center;rotation=0;" vertex="1" parent="1">
          <mxGeometry x="520" y="180" width="100" height="40" as="geometry" />
        </mxCell>
        <mxCell id="Sz2u9h4e2YJX5451O0U0-21" value="&lt;sub&gt;\(\alpha \vec{e}\)&lt;/sub&gt;" style="text;html=1;fontSize=24;fontStyle=1;verticalAlign=middle;align=center;rotation=0;" vertex="1" parent="1">
          <mxGeometry x="570" y="370" width="100" height="40" as="geometry" />
        </mxCell>
        <mxCell id="Sz2u9h4e2YJX5451O0U0-22" value="&lt;sub&gt;\(\alpha \vec{d}\)&lt;/sub&gt;" style="text;html=1;fontSize=24;fontStyle=1;verticalAlign=middle;align=center;rotation=0;" vertex="1" parent="1">
          <mxGeometry x="190" y="370" width="100" height="40" as="geometry" />
        </mxCell>
        <mxCell id="Sz2u9h4e2YJX5451O0U0-23" value="&lt;sub&gt;\(\alpha \vec{b}\)&lt;/sub&gt;" style="text;html=1;fontSize=24;fontStyle=1;verticalAlign=middle;align=center;rotation=0;" vertex="1" parent="1">
          <mxGeometry x="425" y="340" width="100" height="40" as="geometry" />
        </mxCell>
        <mxCell id="Sz2u9h4e2YJX5451O0U0-25" value="Kamera 1" style="text;html=1;fontSize=24;fontStyle=1;verticalAlign=middle;align=center;" vertex="1" parent="1">
          <mxGeometry x="10" y="80" width="100" height="40" as="geometry" />
        </mxCell>
        <mxCell id="Sz2u9h4e2YJX5451O0U0-26" value="Kamera 2" style="text;html=1;fontSize=24;fontStyle=1;verticalAlign=middle;align=center;" vertex="1" parent="1">
          <mxGeometry x="730" y="70" width="100" height="40" as="geometry" />
        </mxCell>
        <mxCell id="Sz2u9h4e2YJX5451O0U0-27" value="Kamera 3" style="text;html=1;fontSize=24;fontStyle=1;verticalAlign=middle;align=center;" vertex="1" parent="1">
          <mxGeometry x="395" y="580" width="100" height="40" as="geometry" />
        </mxCell>
        <mxCell id="Sz2u9h4e2YJX5451O0U0-28" value="&lt;sub&gt;\(\alpha \vec{o}\)&lt;/sub&gt;" style="text;html=1;fontSize=24;fontStyle=1;verticalAlign=middle;align=center;rotation=0;" vertex="1" parent="1">
          <mxGeometry x="170" y="80" width="100" height="40" as="geometry" />
        </mxCell>
      </root>
    </mxGraphModel>
  </diagram>
</mxfile>
